<?xml version="1.0" encoding="UTF-8"?>
<svg width="6px" height="10px" viewBox="0 0 6 10" version="1.1" xmlns="http://www.w3.org/2000/svg" xmlns:xlink="http://www.w3.org/1999/xlink">
    <!-- Generator: Sketch 63.1 (92452) - https://sketch.com -->
    <title>编组 8</title>
    <desc>Created with Sketch.</desc>
    <g id="Page-1" stroke="none" stroke-width="1" fill="none" fill-rule="evenodd">
        <g id="画板备份-6" transform="translate(-1001.000000, -1108.000000)" fill="#258CFF" fill-rule="nonzero">
            <g id="编组-48备份" transform="translate(939.000000, 1103.000000)">
                <g id="编组-8" transform="translate(65.000000, 10.000000) rotate(-90.000000) translate(-65.000000, -10.000000) translate(60.000000, 7.000000)">
                    <path d="M9.11685497,0.172116491 L5.00013052,4.65883838 L0.882572469,0.172116491 C0.682569202,-0.0528809726 0.353397299,-0.0577341544 0.147144278,0.160204778 C0.0513095182,0.267850799 -0.0020251307,0.41299624 1.13686838e-11,0.563877945 C0.00214222087,0.713877039 0.0588097797,0.857699035 0.158394503,0.962256624 L4.62346248,5.82926603 C4.67637999,5.88617723 4.73929801,5.93029447 4.80888224,5.95897096 C4.83179927,5.97088267 4.857633,5.97088267 4.88388341,5.97661788 C4.922634,5.98676484 4.95971784,6 5.00013463,6 C5.04055186,6 5.07680244,5.98676484 5.11597016,5.97705907 C5.14097051,5.97000031 5.16722093,5.97000031 5.19097133,5.95941215 L5.1909713,5.95941216 C5.26146327,5.93118239 5.32540605,5.88725085 5.37847395,5.83058984 L9.84311957,0.964015854 L9.8431196,0.964015823 C10.0485257,0.742291079 10.0527492,0.388676059 9.85270302,0.161522671 L9.85270303,0.161522689 C9.65337998,-0.0509181675 9.32914408,-0.0520514396 9.12850062,0.158991208 C9.12441152,0.163292241 9.12039131,0.167666059 9.11644169,0.172110804 L9.11685497,0.172116491 Z" id="Path"></path>
                </g>
            </g>
        </g>
    </g>
</svg>